{"title":"The Vampire Diaries S02E16 HDTV_JHW.mp4","uid":6201003,"size":251538956,"categoryP":"video","categoryS":"hd___tv_shows","magnet":"?xt=urn:btih:68d0e10a3759a15909875ea043d0e7e66b6dc999&amp;dn=The+Vampire+Diaries+S02E16+HDTV_JHW.mp4&amp;tr=udp%3A%2F%2Ftracker.openbittorrent.com%3A80&amp;tr=udp%3A%2F%2Fopen.demonii.com%3A1337&amp;tr=udp%3A%2F%2Ftracker.coppersurfer.tk%3A6969&amp;tr=udp%3A%2F%2Fexodus.desync.com%3A6969","seeders":1,"leechers":0,"uploader":"jameshotwire","files":1,"time":1298619021,"description":"The House Guest (2011) S02E16\nAired 2/24/2011\n\nKatherine's mind games are getting on everyone's nerves, but Damon, Stefan and Elena realize that her knowledge of Mystic Falls history will help them stay alive. Frustrated with her relationship with Matt, Caroline finds a new way to get his attention. Alaric makes a surprising confession to Jenna, and Katherine makes a different kind of confession to Damon. Stefan and Bonnie try to convince Jonas and Luka that they should all be working together, but Jonas' lack of trust leads to a violent and fiery confrontation.\n\nGeneral\nComplete name                    :The Vampire Diaries S02E16 HDTV_JHW.mp4\nFormat                           : MPEG-4\nFormat profile                   : Base Media\nCodec ID                         : isom\nFile size                        : 240 MiB\nDuration                         : 40mn 19s\nOverall bit rate                 : 832 Kbps\nWriting application              : Lavf50.4.0\n\nVideo\nID                               : 1\nFormat                           : AVC\nFormat/Info                      : Advanced Video Codec\nFormat profile                   : &lt;a class=&quot;__cf_email__&quot; href=&quot;/cdn-cgi/l/email-protection&quot; data-cfemail=&quot;bff2ded6d1fff38a918e&quot;&gt;[email&amp;#160;protected]&lt;/a&gt;&lt;script cf-hash='f9e31' type=&quot;text/javascript&quot;&gt;\n/* &lt;![CDATA[ */!function(){try{var t=&quot;currentScript&quot;in document?document.currentScript:function(){for(var t=document.getElementsByTagName(&quot;script&quot;),e=t.length;e--;)if(t[e].getAttribute(&quot;cf-hash&quot;))return t[e]}();if(t&amp;&amp;t.previousSibling){var e,r,n,i,c=t.previousSibling,a=c.getAttribute(&quot;data-cfemail&quot;);if(a){for(e=&quot;&quot;,r=parseInt(a.substr(0,2),16),n=2;a.length-n;n+=2)i=parseInt(a.substr(n,2),16)^r,e+=String.fromCharCode(i);e=document.createTextNode(e),c.parentNode.replaceChild(e,c)}}}catch(u){}}();/* ]]&gt; */&lt;/script&gt;\nFormat settings, CABAC           : Yes\nFormat settings, ReFrames        : 1 frame\nCodec ID                         : avc1\nCodec ID/Info                    : Advanced Video Coding\nDuration                         : 40mn 19s\nBit rate mode                    : Variable\nBit rate                         : 699 Kbps\nWidth                            : 720 pixels\nHeight                           : 400 pixels\nDisplay aspect ratio             : 16:9\nFrame rate mode                  : Constant\nFrame rate                       : 29.970 fps\nColor space                      : YUV\nChroma subsampling               : 4:2:0\nBit depth                        : 8 bits\nScan type                        : Progressive\nBits/(Pixel*Frame)               : 0.081\nStream size                      : 202 MiB (84%)\n\nAudio\nID                               : 2\nFormat                           : AAC\nFormat/Info                      : Advanced Audio Codec\nFormat profile                   : LC\nCodec ID                         : 40\nDuration                         : 40mn 19s\nBit rate mode                    : Variable\nBit rate                         : 128 Kbps\nChannel(s)                       : 2 channels\nChannel positions                : Front: L R\nSampling rate                    : 48.0 KHz\nCompression mode                 : Lossy\nStream size                      : 36.9 MiB (15%)\n &lt;a href=&quot;\nhttp://img4.imageshack.us/img4/1999/vlcsnap2011022500h59m00.png&quot; rel=&quot;nofollow&quot; target=&quot;_NEW&quot;&gt;\nhttp://img4.imageshack.us/img4/1999/vlcsnap2011022500h59m00.png&lt;/a&gt;\n &lt;a href=&quot;\nhttp://img26.imageshack.us/img26/3509/vlcsnap2011022500h59m26.png&quot; rel=&quot;nofollow&quot; target=&quot;_NEW&quot;&gt;\nhttp://img26.imageshack.us/img26/3509/vlcsnap2011022500h59m26.png&lt;/a&gt;\n &lt;a href=&quot;\nhttp://img718.imageshack.us/img718/2349/vlcsnap2011022501h00m59.png&quot; rel=&quot;nofollow&quot; target=&quot;_NEW&quot;&gt;\nhttp://img718.imageshack.us/img718/2349/vlcsnap2011022501h00m59.png&lt;/a&gt;\n &lt;a href=&quot;\nhttp://img28.imageshack.us/img28/3169/vlcsnap2011022501h01m05.png&quot; rel=&quot;nofollow&quot; target=&quot;_NEW&quot;&gt;\nhttp://img28.imageshack.us/img28/3169/vlcsnap2011022501h01m05.png&lt;/a&gt;\n &lt;a href=&quot;\nhttp://img4.imageshack.us/img4/9678/vlcsnap2011022501h01m18.png&quot; rel=&quot;nofollow&quot; target=&quot;_NEW&quot;&gt;\nhttp://img4.imageshack.us/img4/9678/vlcsnap2011022501h01m18.png&lt;/a&gt;\n &lt;a href=&quot;\nhttp://img64.imageshack.us/img64/4619/vlcsnap2011022501h01m29.png&quot; rel=&quot;nofollow&quot; target=&quot;_NEW&quot;&gt;\nhttp://img64.imageshack.us/img64/4619/vlcsnap2011022501h01m29.png&lt;/a&gt;","torrent":{"xt":"urn:btih:68d0e10a3759a15909875ea043d0e7e66b6dc999","amp;dn":"The+Vampire+Diaries+S02E16+HDTV_JHW.mp4","amp;tr":["udp%3A%2F%2Ftracker.openbittorrent.com%3A80","udp%3A%2F%2Fopen.demonii.com%3A1337","udp%3A%2F%2Ftracker.coppersurfer.tk%3A6969","udp%3A%2F%2Fexodus.desync.com%3A6969"],"infoHash":"68d0e10a3759a15909875ea043d0e7e66b6dc999","infoHashBuffer":{"type":"Buffer","data":[104,208,225,10,55,89,161,89,9,135,94,160,67,208,231,230,107,109,201,153]},"announce":[],"urlList":[]}}